<svg width="24" height="19" viewBox="0 0 24 19" fill="none" xmlns="http://www.w3.org/2000/svg">
<path d="M21.4716 0.0014146C21.0593 0.0162434 20.6683 0.212586 20.3817 0.548769C16.4475 5.01666 12.2364 10.1362 8.30582 14.6544L2.6952 9.41916C2.53819 9.2448 2.35089 9.10934 2.14522 9.0214C1.93954 8.93345 1.71997 8.89496 1.50046 8.90832C1.28094 8.92168 1.06628 8.98663 0.8701 9.09903C0.67392 9.21144 0.50051 9.36883 0.360884 9.56124C0.221257 9.75365 0.118465 9.97687 0.0590364 10.2167C-0.00039258 10.4566 -0.0151603 10.7078 0.0156714 10.9544C0.046503 11.2011 0.12226 11.4378 0.238132 11.6495C0.354003 11.8612 0.507457 12.0433 0.688748 12.1842L7.42645 18.472C7.73028 18.7569 8.11686 18.9032 8.51075 18.8824C8.90464 18.8616 9.27757 18.6753 9.55676 18.3598C13.8168 13.5219 18.4407 7.85348 22.6358 3.08921C22.867 2.83629 23.0248 2.50975 23.0885 2.15286C23.1522 1.79598 23.1187 1.4256 22.9925 1.09078C22.8662 0.755951 22.6532 0.472494 22.3816 0.277956C22.11 0.0834184 21.7927 -0.0130295 21.4716 0.0014146Z" fill="#444444"/>
</svg>
