<?xml version="1.0" standalone="no"?>
<!DOCTYPE svg PUBLIC "-//W3C//DTD SVG 20010904//EN"
 "http://www.w3.org/TR/2001/REC-SVG-20010904/DTD/svg10.dtd">
<svg version="1.0" xmlns="http://www.w3.org/2000/svg"
 width="232.000000pt" height="310.000000pt" viewBox="0 0 232.000000 310.000000"
 preserveAspectRatio="xMidYMid meet">

<g transform="translate(0.000000,310.000000) scale(0.100000,-0.100000)"
fill="#000000" stroke="none">
<path d="M363 2273 c9 -2 25 -2 35 0 9 3 1 5 -18 5 -19 0 -27 -2 -17 -5z"/>
<path d="M777 2203 c-91 -58 -115 -78 -107 -88 8 -10 27 -4 88 29 145 79 186
114 149 129 -6 2 -65 -29 -130 -70z"/>
<path d="M1938 2263 c7 -3 16 -2 19 1 4 3 -2 6 -13 5 -11 0 -14 -3 -6 -6z"/>
<path d="M1397 2243 c-16 -15 -3 -26 66 -58 109 -50 190 -76 199 -62 8 14 -27
36 -117 72 -38 15 -79 34 -90 41 -21 15 -47 18 -58 7z"/>
<path d="M987 1854 c-13 -13 -7 -42 10 -48 21 -8 36 6 31 30 -3 19 -29 30 -41
18z"/>
<path d="M1274 1846 c-9 -24 4 -48 23 -44 24 4 24 52 0 56 -9 2 -20 -4 -23
-12z"/>
<path d="M963 1353 c-18 -2 -33 -7 -33 -11 0 -28 111 -116 233 -186 49 -28 49
-28 70 -8 12 11 33 25 47 32 78 40 203 161 180 175 -5 3 -16 -8 -25 -25 -25
-48 -105 -80 -105 -42 -1 16 -1 16 -11 0 -11 -21 -88 -25 -106 -7 -8 8 -13 8
-17 0 -4 -6 -29 -11 -57 -11 -48 0 -49 0 -49 31 0 19 7 37 18 45 15 12 8 13
-48 12 -36 -1 -80 -3 -97 -5z m117 -37 c0 -32 -22 -48 -54 -40 -25 6 -46 30
-46 53 0 6 21 11 50 11 46 0 50 -2 50 -24z"/>
<path d="M1200 1351 c0 -6 5 -13 10 -16 6 -3 10 1 10 9 0 9 -4 16 -10 16 -5 0
-10 -4 -10 -9z"/>
<path d="M1333 1333 c0 -25 0 -26 13 -8 8 10 14 22 14 27 0 4 -6 8 -14 8 -8 0
-13 -11 -13 -27z"/>
<path d="M508 1128 c-105 -159 -171 -302 -185 -396 l-6 -43 38 15 c20 9 48 16
60 16 28 0 93 -27 112 -46 8 -8 23 -14 33 -14 26 0 37 -53 16 -85 -9 -13 -13
-31 -10 -39 3 -9 -4 -31 -16 -51 l-22 -35 27 -10 26 -10 -3 -107 -3 -108 -37
-3 c-40 -3 -50 -17 -20 -26 9 -3 308 -6 664 -8 470 -2 650 0 658 8 9 9 -3 13
-44 18 l-56 7 0 95 c0 52 4 94 9 94 5 0 3 14 -6 31 -8 16 -13 41 -10 55 2 13
0 24 -4 24 -5 0 -9 16 -9 37 0 30 8 43 47 80 47 44 49 44 101 39 30 -2 64 -12
77 -20 14 -9 26 -16 28 -16 12 0 -28 203 -47 235 -6 11 -22 47 -35 80 -13 33
-30 67 -36 75 -7 8 -25 38 -39 65 -14 28 -32 59 -39 70 -6 11 -13 22 -15 24
-1 3 -19 -11 -40 -31 -51 -48 -136 -102 -202 -128 -30 -12 -59 -25 -65 -30
-15 -12 -149 -40 -190 -40 -20 0 -45 5 -57 11 -14 8 -28 7 -50 -2 -34 -14
-151 2 -203 28 -16 8 -55 24 -85 35 -30 11 -74 32 -98 47 -86 52 -148 94 -173
117 -14 13 -28 24 -31 24 -3 0 -31 -37 -60 -82z"/>
</g>
</svg>
